<svg id="Layer_1" data-name="Layer 1" xmlns="http://www.w3.org/2000/svg" viewBox="0 0 1769.08 1632.67"><defs><style>.cls-1{fill:#fff;}</style></defs><circle class="cls-1" cx="1128.08" cy="1000.67" r="196"/><path class="cls-1" d="M1438.7,397.6,948.08,42.67s-104-96-188,0,34,188,34,188L921.9,334.93H234.08s-108,5.74-108,111.74,112,126,112,126h310l-510,374s-72,90-18,152,96,74,152,48c54-25.07,258.57-152.38,273.17-161.48,7.72,358.9,301.07,647.48,661.83,647.48,365.62,0,662-296.39,662-662C1769.08,725.89,1636.23,512.15,1438.7,397.6Zm-310.62,984.71c-210.77,0-381.64-170.87-381.64-381.64S917.31,619,1128.08,619s381.65,170.87,381.65,381.65S1338.86,1382.31,1128.08,1382.31Z"/></svg>